<svg xmlns="http://www.w3.org/2000/svg" viewBox="0 0 800 450" font-family="Roboto, Arial, sans-serif">
  <rect width="800" height="450" fill="#faf8f5"/>
  <rect x="0" y="400" width="800" height="50" fill="#e8e2d8"/>
  <line x1="0" y1="400" x2="800" y2="400" stroke="#b8ad9c" stroke-width="2"/>

  <!-- far wheels -->
  <circle cx="152" cy="368" r="23" fill="#3a3a3a" stroke="#1a1a1a" stroke-width="2"/>
  <circle cx="294" cy="368" r="23" fill="#3a3a3a" stroke="#1a1a1a" stroke-width="2"/>

  <!-- chassis -->
  <rect x="85" y="330" width="235" height="48" rx="10" fill="#FFC326" stroke="#1a1a1a" stroke-width="2.5"/>
  <rect x="94" y="360" width="217" height="11" rx="4" fill="#e0a800"/>

  <!-- near wheels -->
  <circle cx="128" cy="374" r="26" fill="#1f1f1f" stroke="#1a1a1a" stroke-width="2"/>
  <circle cx="128" cy="374" r="9" fill="#8a8a8a" stroke="#1a1a1a" stroke-width="1.5"/>
  <circle cx="270" cy="374" r="26" fill="#1f1f1f" stroke="#1a1a1a" stroke-width="2"/>
  <circle cx="270" cy="374" r="9" fill="#8a8a8a" stroke="#1a1a1a" stroke-width="1.5"/>

  <!-- turret -->
  <rect x="138" y="300" width="22" height="32" rx="5" fill="#e0a800" stroke="#1a1a1a" stroke-width="2"/>
  <rect x="150" y="292" width="115" height="42" rx="6" fill="#FFC326" stroke="#1a1a1a" stroke-width="2.5"/>
  <!-- ground controls panel -->
  <rect x="238" y="298" width="20" height="26" rx="3" fill="#4f3b3b" stroke="#1a1a1a" stroke-width="1.5"/>
  <circle cx="244" cy="306" r="2" fill="#FFC326"/>
  <circle cx="252" cy="306" r="2" fill="#FFC326"/>
  <circle cx="244" cy="314" r="2" fill="#FFC326"/>
  <circle cx="252" cy="314" r="2" fill="#019E7C"/>

  <!-- lower boom -->
  <line x1="195" y1="300" x2="390" y2="185" stroke="#1a1a1a" stroke-width="22" stroke-linecap="round"/>
  <line x1="195" y1="300" x2="390" y2="185" stroke="#FFC326" stroke-width="17" stroke-linecap="round"/>
  <line x1="207" y1="294" x2="380" y2="192" stroke="#e0a800" stroke-width="3.5"/>
  <circle cx="195" cy="300" r="8" fill="#e0a800" stroke="#1a1a1a" stroke-width="2"/>

  <!-- upper boom -->
  <line x1="390" y1="185" x2="600" y2="162" stroke="#1a1a1a" stroke-width="20" stroke-linecap="round"/>
  <line x1="390" y1="185" x2="600" y2="162" stroke="#FFC326" stroke-width="15" stroke-linecap="round"/>
  <line x1="404" y1="182" x2="592" y2="163" stroke="#e0a800" stroke-width="3.5"/>

  <!-- knuckle -->
  <circle cx="390" cy="185" r="13" fill="#e0a800" stroke="#1a1a1a" stroke-width="2.5"/>
  <circle cx="390" cy="185" r="4.5" fill="#1a1a1a"/>

  <!-- operator (drawn before basket walls/rails) -->
  <line x1="662" y1="114" x2="690" y2="101" stroke="#1a1a1a" stroke-width="10" stroke-linecap="round"/>
  <line x1="662" y1="114" x2="690" y2="101" stroke="#FF7F00" stroke-width="6.5" stroke-linecap="round"/>
  <circle cx="692" cy="100" r="4.5" fill="#e6b48c" stroke="#1a1a1a" stroke-width="1.5"/>
  <rect x="638" y="104" width="30" height="52" rx="8" fill="#FF7F00" stroke="#1a1a1a" stroke-width="2"/>
  <rect x="650" y="104" width="7" height="52" fill="#FFC326"/>
  <line x1="641" y1="112" x2="667" y2="132" stroke="#4f3b3b" stroke-width="2.5"/>
  <line x1="667" y1="112" x2="641" y2="132" stroke="#4f3b3b" stroke-width="2.5"/>
  <circle cx="653" cy="90" r="10" fill="#e6b48c" stroke="#1a1a1a" stroke-width="2"/>
  <path d="M641 88 A12 12 0 0 1 665 88 Z" fill="#FFC326" stroke="#1a1a1a" stroke-width="2"/>
  <rect x="636" y="86" width="34" height="5" rx="2.5" fill="#FFC326" stroke="#1a1a1a" stroke-width="1.5"/>

  <!-- basket base / toe board -->
  <rect x="598" y="150" width="120" height="32" rx="3" fill="#e0a800" stroke="#1a1a1a" stroke-width="2.5"/>

  <!-- harness lanyard to anchor point -->
  <path d="M653 126 Q618 136 610 150" fill="none" stroke="#4f3b3b" stroke-width="3"/>
  <circle cx="609" cy="151" r="4.5" fill="#019E7C" stroke="#1a1a1a" stroke-width="1.5"/>

  <!-- guardrails -->
  <rect x="600" y="106" width="4" height="46" fill="#1a1a1a"/>
  <rect x="628" y="106" width="4" height="46" fill="#1a1a1a"/>
  <rect x="656" y="106" width="4" height="46" fill="#1a1a1a"/>
  <rect x="684" y="106" width="4" height="46" fill="#1a1a1a"/>
  <rect x="712" y="106" width="4" height="46" fill="#1a1a1a"/>
  <rect x="598" y="126" width="120" height="4" fill="#1a1a1a"/>
  <rect x="598" y="102" width="120" height="6" rx="2" fill="#1a1a1a"/>

  <!-- platform controls console -->
  <rect x="686" y="86" width="28" height="18" rx="3" fill="#4f3b3b" stroke="#1a1a1a" stroke-width="1.5"/>
  <circle cx="694" cy="95" r="2.5" fill="#FFC326"/>
  <circle cx="703" cy="95" r="2.5" fill="#FF7F00"/>
  <circle cx="710" cy="95" r="2.5" fill="#019E7C"/>
</svg>
