<svg xmlns="http://www.w3.org/2000/svg" viewBox="0 0 800 450" font-family="Roboto, Arial, sans-serif">
  <!-- background -->
  <rect width="800" height="450" fill="#faf8f5"/>
  <rect x="0" y="400" width="800" height="50" fill="#e8e2d8"/>
  <line x1="0" y1="400" x2="800" y2="400" stroke="#b8ad9c" stroke-width="2"/>

  <!-- ===== forklift, facing right ===== -->
  <!-- counterweight -->
  <path d="M150,350 L150,300 Q150,285 165,285 L230,285 L230,350 Z" fill="#e0a800" stroke="#1a1a1a" stroke-width="2.5"/>
  <!-- body -->
  <rect x="200" y="290" width="200" height="60" rx="8" fill="#FFC326" stroke="#1a1a1a" stroke-width="2.5"/>
  <!-- hood / dash console -->
  <path d="M330,290 L330,255 Q330,248 337,248 L392,248 Q400,248 400,258 L400,290 Z" fill="#FFC326" stroke="#1a1a1a" stroke-width="2.5"/>
  <!-- steering wheel -->
  <path d="M340,250 L322,232" stroke="#1a1a1a" stroke-width="4" stroke-linecap="round"/>
  <circle cx="318" cy="228" r="9" fill="none" stroke="#1a1a1a" stroke-width="3.5"/>

  <!-- data plate -->
  <rect x="352" y="298" width="30" height="22" rx="2" fill="#f5f2ec" stroke="#1a1a1a" stroke-width="1.5"/>
  <line x1="356" y1="304" x2="378" y2="304" stroke="#8a8378" stroke-width="1.5"/>
  <line x1="356" y1="309" x2="378" y2="309" stroke="#8a8378" stroke-width="1.5"/>
  <line x1="356" y1="314" x2="372" y2="314" stroke="#8a8378" stroke-width="1.5"/>

  <!-- overhead guard -->
  <line x1="222" y1="290" x2="228" y2="148" stroke="#3d3d3d" stroke-width="9" stroke-linecap="round"/>
  <line x1="352" y1="252" x2="342" y2="148" stroke="#3d3d3d" stroke-width="9" stroke-linecap="round"/>
  <rect x="212" y="136" width="146" height="12" rx="5" fill="#3d3d3d"/>
  <g stroke="#3d3d3d" stroke-width="4">
    <line x1="242" y1="140" x2="242" y2="147"/>
    <line x1="268" y1="140" x2="268" y2="147"/>
    <line x1="294" y1="140" x2="294" y2="147"/>
    <line x1="320" y1="140" x2="320" y2="147"/>
  </g>

  <!-- seat -->
  <rect x="248" y="238" width="54" height="14" rx="5" fill="#4f3b3b" stroke="#1a1a1a" stroke-width="2"/>
  <rect x="240" y="196" width="13" height="48" rx="5" fill="#4f3b3b" stroke="#1a1a1a" stroke-width="2"/>

  <!-- wheels -->
  <circle cx="370" cy="352" r="48" fill="#2b2b2b" stroke="#1a1a1a" stroke-width="3"/>
  <circle cx="370" cy="352" r="22" fill="#8a8378"/>
  <circle cx="370" cy="352" r="8" fill="#4a4540"/>
  <circle cx="212" cy="364" r="36" fill="#2b2b2b" stroke="#1a1a1a" stroke-width="3"/>
  <circle cx="212" cy="364" r="16" fill="#8a8378"/>
  <circle cx="212" cy="364" r="6" fill="#4a4540"/>

  <!-- mast carriage link to chassis -->
  <rect x="398" y="300" width="38" height="26" rx="4" fill="#3d3d3d" stroke="#1a1a1a" stroke-width="2"/>
  <!-- mast -->
  <rect x="432" y="118" width="13" height="274" fill="#555" stroke="#1a1a1a" stroke-width="2"/>
  <rect x="455" y="118" width="13" height="274" fill="#6b6b6b" stroke="#1a1a1a" stroke-width="2"/>
  <g stroke="#1a1a1a" stroke-width="2" fill="#555">
    <rect x="432" y="150" width="36" height="8"/>
    <rect x="432" y="230" width="36" height="8"/>
    <rect x="432" y="310" width="36" height="8"/>
  </g>
  <!-- lift chain hint -->
  <line x1="474" y1="130" x2="474" y2="240" stroke="#8a8378" stroke-width="3" stroke-dasharray="4 3"/>

  <!-- load backrest -->
  <g stroke="#1a1a1a" stroke-width="2">
    <rect x="478" y="228" width="12" height="152" fill="#777"/>
    <line x1="478" y1="256" x2="490" y2="256"/>
    <line x1="478" y1="284" x2="490" y2="284"/>
    <line x1="478" y1="312" x2="490" y2="312"/>
    <line x1="478" y1="340" x2="490" y2="340"/>
  </g>

  <!-- forks -->
  <path d="M490,262 L502,262 L502,384 L664,384 L664,396 L490,396 Z" fill="#3d3d3d" stroke="#1a1a1a" stroke-width="2"/>
</svg>
