<svg xmlns="http://www.w3.org/2000/svg" viewBox="0 0 800 450" font-family="Roboto, Arial, sans-serif">
  <rect width="800" height="450" fill="#faf8f5"/>
  <rect x="0" y="400" width="800" height="50" fill="#e8e2d8"/>
  <line x1="0" y1="400" x2="800" y2="400" stroke="#b8ad9c" stroke-width="2"/>

  <text x="30" y="44" font-size="22" font-weight="700" fill="#4f3b3b">Train the Trainer</text>
  <rect x="30" y="52" width="64" height="4" fill="#FFC326"/>

  <!-- forklift silhouette (background, right) -->
  <rect x="627" y="260" width="8" height="120" fill="#FFC326" stroke="#1a1a1a" stroke-width="2"/>
  <rect x="621" y="345" width="8" height="33" fill="#FFC326" stroke="#1a1a1a" stroke-width="1.5"/>
  <rect x="582" y="372" width="40" height="6" fill="#FFC326" stroke="#1a1a1a" stroke-width="1.5"/>
  <rect x="645" y="262" width="6" height="55" fill="#FFC326" stroke="#1a1a1a" stroke-width="1.5"/>
  <rect x="720" y="262" width="6" height="55" fill="#FFC326" stroke="#1a1a1a" stroke-width="1.5"/>
  <rect x="638" y="252" width="95" height="10" rx="3" fill="#FFC326" stroke="#1a1a1a" stroke-width="2"/>
  <rect x="635" y="315" width="105" height="55" rx="8" fill="#FFC326" stroke="#1a1a1a" stroke-width="2"/>
  <rect x="725" y="325" width="28" height="45" rx="6" fill="#e0a800" stroke="#1a1a1a" stroke-width="2"/>
  <circle cx="662" cy="382" r="17" fill="#2b2b2b" stroke="#1a1a1a" stroke-width="2"/>
  <circle cx="662" cy="382" r="5.5" fill="#8a8a8a"/>
  <circle cx="722" cy="382" r="15" fill="#2b2b2b" stroke="#1a1a1a" stroke-width="2"/>
  <circle cx="722" cy="382" r="5" fill="#8a8a8a"/>

  <!-- clipboard with checkmark -->
  <rect x="688" y="175" width="48" height="62" rx="4" fill="#ffffff" stroke="#1a1a1a" stroke-width="2.5"/>
  <rect x="704" y="168" width="16" height="12" rx="3" fill="#4f3b3b" stroke="#1a1a1a" stroke-width="1.5"/>
  <path d="M700 205 l8 9 l16 -18" fill="none" stroke="#019E7C" stroke-width="5" stroke-linecap="round" stroke-linejoin="round"/>
  <line x1="698" y1="224" x2="726" y2="224" stroke="#b8ad9c" stroke-width="3" stroke-linecap="round"/>
  <line x1="698" y1="230" x2="718" y2="230" stroke="#b8ad9c" stroke-width="3" stroke-linecap="round"/>

  <!-- flip chart stand -->
  <line x1="225" y1="290" x2="205" y2="396" stroke="#4f3b3b" stroke-width="4"/>
  <line x1="345" y1="290" x2="365" y2="396" stroke="#4f3b3b" stroke-width="4"/>
  <line x1="216" y1="352" x2="356" y2="352" stroke="#4f3b3b" stroke-width="3"/>
  <!-- board -->
  <rect x="210" y="160" width="150" height="130" fill="#ffffff" stroke="#1a1a1a" stroke-width="2.5"/>
  <rect x="205" y="150" width="160" height="13" rx="4" fill="#4f3b3b" stroke="#1a1a1a" stroke-width="1.5"/>
  <!-- forklift sketch on board -->
  <rect x="238" y="203" width="48" height="22" rx="3" fill="#FFC326" stroke="#4f3b3b" stroke-width="2"/>
  <line x1="288" y1="184" x2="288" y2="228" stroke="#4f3b3b" stroke-width="2.5"/>
  <line x1="288" y1="227" x2="314" y2="227" stroke="#4f3b3b" stroke-width="2.5"/>
  <line x1="250" y1="194" x2="280" y2="194" stroke="#4f3b3b" stroke-width="2"/>
  <line x1="250" y1="194" x2="250" y2="205" stroke="#4f3b3b" stroke-width="2"/>
  <line x1="280" y1="194" x2="280" y2="205" stroke="#4f3b3b" stroke-width="2"/>
  <circle cx="252" cy="230" r="6" fill="#ffffff" stroke="#4f3b3b" stroke-width="2"/>
  <circle cx="276" cy="230" r="6" fill="#ffffff" stroke="#4f3b3b" stroke-width="2"/>
  <!-- text-line strokes -->
  <line x1="234" y1="253" x2="336" y2="253" stroke="#b8ad9c" stroke-width="4" stroke-linecap="round"/>
  <line x1="234" y1="266" x2="320" y2="266" stroke="#b8ad9c" stroke-width="4" stroke-linecap="round"/>
  <line x1="234" y1="279" x2="300" y2="279" stroke="#b8ad9c" stroke-width="4" stroke-linecap="round"/>

  <!-- instructor -->
  <rect x="100" y="300" width="11" height="94" fill="#2b2b2b"/>
  <rect x="118" y="300" width="11" height="94" fill="#2b2b2b"/>
  <rect x="94" y="392" width="20" height="8" rx="3" fill="#1a1a1a"/>
  <rect x="115" y="392" width="20" height="8" rx="3" fill="#1a1a1a"/>
  <line x1="98" y1="238" x2="86" y2="290" stroke="#1a1a1a" stroke-width="11" stroke-linecap="round"/>
  <line x1="98" y1="238" x2="86" y2="290" stroke="#4f3b3b" stroke-width="7" stroke-linecap="round"/>
  <circle cx="86" cy="293" r="5" fill="#e6b48c" stroke="#1a1a1a" stroke-width="1.5"/>
  <rect x="92" y="222" width="46" height="84" rx="10" fill="#4f3b3b" stroke="#1a1a1a" stroke-width="2.5"/>
  <line x1="130" y1="240" x2="186" y2="223" stroke="#1a1a1a" stroke-width="11" stroke-linecap="round"/>
  <line x1="130" y1="240" x2="186" y2="223" stroke="#4f3b3b" stroke-width="7" stroke-linecap="round"/>
  <circle cx="191" cy="221" r="5" fill="#e6b48c" stroke="#1a1a1a" stroke-width="1.5"/>
  <circle cx="115" cy="198" r="15" fill="#e6b48c" stroke="#1a1a1a" stroke-width="2"/>
  <path d="M101 193 A15 15 0 0 1 129 193 Z" fill="#3a3230"/>

  <!-- trainee A (seated, facing left) -->
  <rect x="468" y="262" width="8" height="58" fill="#6b5844" stroke="#1a1a1a" stroke-width="1.5"/>
  <rect x="430" y="315" width="44" height="10" rx="3" fill="#6b5844" stroke="#1a1a1a" stroke-width="1.5"/>
  <rect x="434" y="325" width="6" height="71" fill="#1a1a1a"/>
  <rect x="464" y="325" width="6" height="71" fill="#1a1a1a"/>
  <rect x="414" y="306" width="10" height="84" fill="#2b2b2b"/>
  <rect x="406" y="388" width="20" height="8" rx="3" fill="#1a1a1a"/>
  <rect x="416" y="300" width="36" height="13" rx="6" fill="#2b2b2b"/>
  <rect x="438" y="248" width="34" height="62" rx="8" fill="#FF7F00" stroke="#1a1a1a" stroke-width="2"/>
  <rect x="452" y="248" width="6" height="62" fill="#FFC326"/>
  <line x1="446" y1="266" x2="424" y2="296" stroke="#1a1a1a" stroke-width="9" stroke-linecap="round"/>
  <line x1="446" y1="266" x2="424" y2="296" stroke="#FF7F00" stroke-width="6" stroke-linecap="round"/>
  <circle cx="451" cy="232" r="12" fill="#e6b48c" stroke="#1a1a1a" stroke-width="2"/>
  <path d="M440 228 A12 12 0 0 1 462 228 Z" fill="#3a3230"/>

  <!-- trainee B (seated, facing left) -->
  <rect x="568" y="262" width="8" height="58" fill="#6b5844" stroke="#1a1a1a" stroke-width="1.5"/>
  <rect x="530" y="315" width="44" height="10" rx="3" fill="#6b5844" stroke="#1a1a1a" stroke-width="1.5"/>
  <rect x="534" y="325" width="6" height="71" fill="#1a1a1a"/>
  <rect x="564" y="325" width="6" height="71" fill="#1a1a1a"/>
  <rect x="514" y="306" width="10" height="84" fill="#2b2b2b"/>
  <rect x="506" y="388" width="20" height="8" rx="3" fill="#1a1a1a"/>
  <rect x="516" y="300" width="36" height="13" rx="6" fill="#2b2b2b"/>
  <rect x="538" y="248" width="34" height="62" rx="8" fill="#FF7F00" stroke="#1a1a1a" stroke-width="2"/>
  <rect x="552" y="248" width="6" height="62" fill="#FFC326"/>
  <line x1="546" y1="266" x2="524" y2="296" stroke="#1a1a1a" stroke-width="9" stroke-linecap="round"/>
  <line x1="546" y1="266" x2="524" y2="296" stroke="#FF7F00" stroke-width="6" stroke-linecap="round"/>
  <circle cx="551" cy="232" r="12" fill="#e6b48c" stroke="#1a1a1a" stroke-width="2"/>
  <path d="M540 228 A12 12 0 0 1 562 228 Z" fill="#3a3230"/>

  <!-- labels -->
  <g font-size="15" font-weight="600" fill="#1a1a1a">
    <line x1="285" y1="118" x2="285" y2="144" stroke="#4f3b3b" stroke-width="1.5"/>
    <circle cx="285" cy="148" r="3.5" fill="#FF7F00"/>
    <text x="285" y="110" text-anchor="middle">Formal instruction</text>

    <line x1="662" y1="126" x2="682" y2="164" stroke="#4f3b3b" stroke-width="1.5"/>
    <circle cx="684" cy="169" r="3.5" fill="#FF7F00"/>
    <text x="655" y="118" text-anchor="middle">Practical evaluation</text>
  </g>

  <!-- bottom banner -->
  <rect x="160" y="408" width="480" height="34" rx="10" fill="#4f3b3b"/>
  <text x="400" y="430" font-size="16" font-weight="600" fill="#ffffff" text-anchor="middle">Learn to train and evaluate operators at your site</text>
</svg>
