<svg xmlns="http://www.w3.org/2000/svg" viewBox="0 0 800 450">
  <!-- wall -->
  <rect width="800" height="450" fill="#ece6dc"/>
  <rect x="0" y="0" width="800" height="24" fill="#ded6c7"/>
  <g stroke="#dfd8cb" stroke-width="3">
    <line x1="140" y1="24" x2="140" y2="378"/>
    <line x1="330" y1="24" x2="330" y2="378"/>
    <line x1="520" y1="24" x2="520" y2="378"/>
    <line x1="700" y1="24" x2="700" y2="378"/>
  </g>
  <!-- ceiling lights -->
  <g>
    <line x1="200" y1="0" x2="200" y2="16" stroke="#b8ad9c" stroke-width="3"/>
    <rect x="150" y="16" width="100" height="12" rx="3" fill="#efe9dd" stroke="#b8ad9c" stroke-width="2"/>
    <rect x="154" y="24" width="92" height="4" fill="#ffe9a8"/>
    <line x1="560" y1="0" x2="560" y2="16" stroke="#b8ad9c" stroke-width="3"/>
    <rect x="510" y="16" width="100" height="12" rx="3" fill="#efe9dd" stroke="#b8ad9c" stroke-width="2"/>
    <rect x="514" y="24" width="92" height="4" fill="#ffe9a8"/>
  </g>

  <!-- background racking, left -->
  <g>
    <rect x="10" y="90" width="10" height="288" fill="#8b7a6d"/>
    <rect x="120" y="90" width="10" height="288" fill="#8b7a6d"/>
    <rect x="230" y="90" width="10" height="288" fill="#8b7a6d"/>
    <rect x="10" y="180" width="230" height="8" fill="#96857a"/>
    <rect x="10" y="280" width="230" height="8" fill="#96857a"/>
    <rect x="22" y="212" width="44" height="68" fill="#ddc7a8"/>
    <rect x="72" y="228" width="42" height="52" fill="#d1b18b"/>
    <rect x="136" y="220" width="44" height="60" fill="#d8bd97"/>
    <rect x="186" y="234" width="38" height="46" fill="#ddc7a8"/>
    <rect x="24" y="108" width="42" height="72" fill="#d1b18b"/>
    <rect x="140" y="120" width="44" height="60" fill="#ddc7a8"/>
    <rect x="20" y="318" width="46" height="60" fill="#d8bd97"/>
    <rect x="140" y="330" width="46" height="48" fill="#d1b18b"/>
  </g>

  <!-- floor -->
  <rect x="0" y="378" width="800" height="72" fill="#d8d2c6"/>
  <line x1="0" y1="378" x2="800" y2="378" stroke="#c2bbad" stroke-width="2"/>
  <line x1="0" y1="414" x2="800" y2="414" stroke="#c9c2b4" stroke-width="1.5"/>

  <!-- ================= PARKED FORKLIFT behind (right) ================= -->
  <g transform="translate(320,160) scale(0.6)">
    <ellipse cx="400" cy="404" rx="270" ry="15" fill="rgba(0,0,0,0.10)"/>
    <path d="M150,350 L150,300 Q150,285 165,285 L230,285 L230,350 Z" fill="#e0a800" stroke="#1a1a1a" stroke-width="2.5"/>
    <rect x="200" y="290" width="200" height="60" rx="8" fill="#FFC326" stroke="#1a1a1a" stroke-width="2.5"/>
    <rect x="240" y="196" width="13" height="48" rx="5" fill="#4f3b3b" stroke="#1a1a1a" stroke-width="2"/>
    <rect x="248" y="238" width="54" height="14" rx="5" fill="#4f3b3b" stroke="#1a1a1a" stroke-width="2"/>
    <path d="M330,290 L330,255 Q330,248 337,248 L392,248 Q400,248 400,258 L400,290 Z" fill="#FFC326" stroke="#1a1a1a" stroke-width="2.5"/>
    <path d="M340,250 L322,232" stroke="#1a1a1a" stroke-width="4" stroke-linecap="round"/>
    <circle cx="318" cy="228" r="9" fill="none" stroke="#1a1a1a" stroke-width="3.5"/>
    <circle cx="370" cy="352" r="48" fill="#2b2b2b" stroke="#1a1a1a" stroke-width="3"/>
    <circle cx="370" cy="352" r="22" fill="#8a8378"/>
    <circle cx="212" cy="364" r="36" fill="#2b2b2b" stroke="#1a1a1a" stroke-width="3"/>
    <circle cx="212" cy="364" r="16" fill="#8a8378"/>
    <line x1="222" y1="290" x2="228" y2="148" stroke="#3d3d3d" stroke-width="9" stroke-linecap="round"/>
    <line x1="352" y1="252" x2="342" y2="148" stroke="#3d3d3d" stroke-width="9" stroke-linecap="round"/>
    <rect x="212" y="136" width="146" height="12" rx="5" fill="#3d3d3d"/>
    <rect x="398" y="300" width="38" height="26" rx="4" fill="#3d3d3d" stroke="#1a1a1a" stroke-width="2"/>
    <rect x="432" y="118" width="13" height="274" fill="#555" stroke="#1a1a1a" stroke-width="2"/>
    <rect x="455" y="118" width="13" height="274" fill="#6b6b6b" stroke="#1a1a1a" stroke-width="2"/>
    <g stroke="#1a1a1a" stroke-width="2" fill="#555">
      <rect x="432" y="150" width="36" height="8"/>
      <rect x="432" y="230" width="36" height="8"/>
      <rect x="432" y="310" width="36" height="8"/>
    </g>
    <g stroke="#1a1a1a" stroke-width="2">
      <rect x="478" y="228" width="12" height="152" fill="#777"/>
      <line x1="478" y1="284" x2="490" y2="284"/>
      <line x1="478" y1="340" x2="490" y2="340"/>
    </g>
    <path d="M490,262 L502,262 L502,384 L664,384 L664,396 L490,396 Z" fill="#3d3d3d" stroke="#1a1a1a" stroke-width="2"/>
  </g>

  <!-- ================= THREE WORKERS ================= -->
  <!-- Worker 1: white hat, navy sleeves, dark skin -->
  <g>
    <ellipse cx="210" cy="438" rx="46" ry="8" fill="rgba(0,0,0,0.13)"/>
    <path d="M198,352 L195,418" stroke="#3f4652" stroke-width="17" stroke-linecap="round"/>
    <path d="M222,352 L225,418" stroke="#3f4652" stroke-width="17" stroke-linecap="round"/>
    <rect x="182" y="418" width="27" height="15" rx="5" fill="#5b4634" stroke="#1a1a1a" stroke-width="2"/>
    <rect x="213" y="418" width="27" height="15" rx="5" fill="#5b4634" stroke="#1a1a1a" stroke-width="2"/>
    <path d="M180,278 L240,278 L232,268 L188,268 Z" fill="#3b4a6b"/>
    <path d="M178,276 L242,276 Q249,308 245,358 L175,358 Q171,308 178,276 Z" fill="#FF7F00" stroke="#1a1a1a" stroke-width="2.5"/>
    <line x1="194" y1="278" x2="191" y2="356" stroke="#ffe14d" stroke-width="7"/>
    <line x1="226" y1="278" x2="229" y2="356" stroke="#ffe14d" stroke-width="7"/>
    <rect x="174" y="322" width="72" height="10" fill="#ffe14d"/>
    <path d="M180,284 L166,350" stroke="#3b4a6b" stroke-width="13" stroke-linecap="round"/>
    <path d="M240,284 L254,350" stroke="#3b4a6b" stroke-width="13" stroke-linecap="round"/>
    <circle cx="164" cy="358" r="9" fill="#d9b45c" stroke="#1a1a1a" stroke-width="1.5"/>
    <circle cx="256" cy="358" r="9" fill="#d9b45c" stroke="#1a1a1a" stroke-width="1.5"/>
    <rect x="202" y="258" width="16" height="14" fill="#8d5524"/>
    <circle cx="210" cy="240" r="21" fill="#8d5524"/>
    <rect x="192" y="230" width="36" height="9" rx="4" fill="#b9d4e2" stroke="#1a1a1a" stroke-width="1.5"/>
    <path d="M202,253 Q210,259 218,253" fill="none" stroke="#5c3316" stroke-width="2"/>
    <path d="M186,232 Q186,206 210,206 Q234,206 234,232 Z" fill="#ffffff" stroke="#1a1a1a" stroke-width="2.5"/>
    <rect x="179" y="228" width="62" height="8" rx="4" fill="#e8e4dc" stroke="#1a1a1a" stroke-width="2"/>
  </g>

  <!-- Worker 2: gold hat, ponytail, gray sleeves -->
  <g>
    <ellipse cx="360" cy="438" rx="46" ry="8" fill="rgba(0,0,0,0.13)"/>
    <path d="M349,352 L346,418" stroke="#54584a" stroke-width="16" stroke-linecap="round"/>
    <path d="M371,352 L374,418" stroke="#54584a" stroke-width="16" stroke-linecap="round"/>
    <rect x="333" y="418" width="26" height="15" rx="5" fill="#5b4634" stroke="#1a1a1a" stroke-width="2"/>
    <rect x="362" y="418" width="26" height="15" rx="5" fill="#5b4634" stroke="#1a1a1a" stroke-width="2"/>
    <path d="M382,258 Q394,290 388,318" fill="none" stroke="#3a2a1c" stroke-width="10" stroke-linecap="round"/>
    <path d="M331,276 L389,276 Q396,308 392,358 L328,358 Q324,308 331,276 Z" fill="#FF7F00" stroke="#1a1a1a" stroke-width="2.5"/>
    <line x1="345" y1="278" x2="342" y2="356" stroke="#ffe14d" stroke-width="7"/>
    <line x1="375" y1="278" x2="378" y2="356" stroke="#ffe14d" stroke-width="7"/>
    <rect x="326" y="322" width="68" height="10" fill="#ffe14d"/>
    <path d="M333,284 L320,348" stroke="#5a6470" stroke-width="12" stroke-linecap="round"/>
    <path d="M387,284 L400,348" stroke="#5a6470" stroke-width="12" stroke-linecap="round"/>
    <circle cx="318" cy="356" r="8.5" fill="#6b7280" stroke="#1a1a1a" stroke-width="1.5"/>
    <circle cx="402" cy="356" r="8.5" fill="#6b7280" stroke="#1a1a1a" stroke-width="1.5"/>
    <rect x="352" y="258" width="16" height="14" fill="#c68642"/>
    <circle cx="360" cy="240" r="20" fill="#c68642"/>
    <rect x="343" y="230" width="34" height="9" rx="4" fill="#b9d4e2" stroke="#1a1a1a" stroke-width="1.5"/>
    <path d="M352,255 Q360,259 368,255" fill="none" stroke="#8a5220" stroke-width="2"/>
    <path d="M337,232 Q337,207 360,207 Q383,207 383,232 Z" fill="#FFC326" stroke="#1a1a1a" stroke-width="2.5"/>
    <rect x="330" y="228" width="60" height="8" rx="4" fill="#e0a800" stroke="#1a1a1a" stroke-width="2"/>
  </g>

  <!-- Worker 3: no hat on head (holds it under arm), light skin -->
  <g>
    <ellipse cx="510" cy="438" rx="46" ry="8" fill="rgba(0,0,0,0.13)"/>
    <path d="M498,352 L495,418" stroke="#4a4437" stroke-width="17" stroke-linecap="round"/>
    <path d="M522,352 L525,418" stroke="#4a4437" stroke-width="17" stroke-linecap="round"/>
    <rect x="482" y="418" width="27" height="15" rx="5" fill="#5b4634" stroke="#1a1a1a" stroke-width="2"/>
    <rect x="513" y="418" width="27" height="15" rx="5" fill="#5b4634" stroke="#1a1a1a" stroke-width="2"/>
    <path d="M480,276 L542,276 Q549,308 545,358 L475,358 Q471,308 480,276 Z" fill="#FF7F00" stroke="#1a1a1a" stroke-width="2.5"/>
    <line x1="494" y1="278" x2="491" y2="356" stroke="#ffe14d" stroke-width="7"/>
    <line x1="526" y1="278" x2="529" y2="356" stroke="#ffe14d" stroke-width="7"/>
    <rect x="474" y="322" width="72" height="10" fill="#ffe14d"/>
    <!-- left arm down -->
    <path d="M480,284 L468,350" stroke="#4f5a3e" stroke-width="13" stroke-linecap="round"/>
    <circle cx="466" cy="358" r="9" fill="#d9b45c" stroke="#1a1a1a" stroke-width="1.5"/>
    <!-- hard hat under right arm -->
    <g transform="rotate(-90 556 330)">
      <path d="M534,340 Q534,312 556,312 Q579,312 579,340 Z" fill="#ffffff" stroke="#1a1a1a" stroke-width="2.5"/>
      <rect x="527" y="336" width="58" height="8" rx="4" fill="#e8e4dc" stroke="#1a1a1a" stroke-width="2"/>
    </g>
    <!-- right arm wrapping over hat -->
    <path d="M542,284 L556,318" stroke="#4f5a3e" stroke-width="13" stroke-linecap="round"/>
    <circle cx="558" cy="326" r="9" fill="#d9b45c" stroke="#1a1a1a" stroke-width="1.5"/>
    <rect x="502" y="258" width="16" height="14" fill="#f1c27d"/>
    <circle cx="510" cy="240" r="20" fill="#f1c27d"/>
    <path d="M489,238 Q488,214 510,214 Q532,214 533,238 Q522,228 510,228 Q498,228 489,238 Z" fill="#6b4a2f" stroke="#1a1a1a" stroke-width="2"/>
    <rect x="493" y="232" width="34" height="9" rx="4" fill="#b9d4e2" stroke="#1a1a1a" stroke-width="1.5"/>
    <path d="M502,256 Q510,260 518,256" fill="none" stroke="#b3763a" stroke-width="2"/>
  </g>
</svg>
